<?xml version="1.0" encoding="UTF-8"?>
<svg id="Layer_1" xmlns="http://www.w3.org/2000/svg" width="28" height="32" version="1.1" viewBox="0 0 28 32">
  <!-- Generator: Adobe Illustrator 29.1.0, SVG Export Plug-In . SVG Version: 2.1.0 Build 142)  -->
  <defs>
    <style>
      .st0 {
        fill: none;
        stroke: #424242;
        stroke-linecap: round;
        stroke-linejoin: round;
        stroke-width: .8px;
      }
    </style>
  </defs>
  <g>
    <path class="st0" d="M14,11.9c3.6,0,6.8-4.8,4.4-7.9-1-1.3-2.7-1.6-4.2-1.6-2.6,0-5.1,1.8-5.9,4.2-1.4,4.1,3.8,6.3,4.6,10,.5,2.3-.8,4.9-3.3,5.3-1.1.2-2.1,0-3.2-.4-.9-.3-1.7-.7-2.5-1.3-1.2-.9-2-2.3-1.8-3.8.2-1.3,1-2.5,2.1-3.2.5-.3,1.1-.5,1.7-.6"/>
    <path class="st0" d="M15.1,18.5c1.3,1.6,3.8,2.9,5.8,3,1.6,0,3.1-.7,4-2,.9-1.3,1.2-2.9,1-4.4-.2-1.3-.8-2.7-2-3.4-2.4-1.4-4.9.9-6.4,2.7-2.2,2.8-3.5,6.2-4.7,9.5-.1.4-.3.8-.4,1.1-.4,1-.7,2-1.2,2.8s-1.4,1.8-2.5,1.6c-1.7-.4-1.9-3.3-.7-4.3,1.4-1.2,3.1.2,4.3,1.1,2.2,1.6,5.2,3.7,8.1,3.1"/>
  </g>
  <g>
    <path class="st0" d="M13.1,11.7c-1.1,1.9-3,4.3-4.6,6.1"/>
    <path class="st0" d="M19.4,17.8c-1.5-1.8-3.5-4.2-4.6-6.1"/>
    <circle class="st0" cx="7.1" cy="19.4" r="2.1"/>
    <circle class="st0" cx="20.8" cy="19.4" r="2.1"/>
    <circle class="st0" cx="14" cy="9.3" r="2.6"/>
  </g>
</svg>