<?xml version="1.0" encoding="iso-8859-1"?>
<!-- Generator: Adobe Illustrator 29.1.0, SVG Export Plug-In . SVG Version: 9.03 Build 55587)  -->
<svg version="1.1" id="Layer_1" xmlns="http://www.w3.org/2000/svg" xmlns:xlink="http://www.w3.org/1999/xlink" x="0px" y="0px"
	 width="28px" height="32px" viewBox="0 0 28 32" enable-background="new 0 0 28 32" xml:space="preserve">
<g>
	<g>
		
			<path fill="none" stroke="#424242" stroke-width="0.75" stroke-linecap="round" stroke-linejoin="round" stroke-miterlimit="10" d="
			M13.98,11.874c3.65,0,6.813-4.848,4.356-7.936c-1.016-1.276-2.699-1.595-4.247-1.606c-2.557-0.017-5.051,1.843-5.882,4.232
			c-1.43,4.111,3.831,6.32,4.57,9.979c0.466,2.306-0.805,4.905-3.262,5.291C8.457,22,7.371,21.783,6.357,21.434
			c-0.886-0.305-1.743-0.715-2.48-1.292c-1.189-0.93-2.016-2.274-1.831-3.821C2.204,14.99,3.04,13.78,4.17,13.079
			c0.518-0.322,1.102-0.538,1.709-0.613"/>
		
			<path fill="none" stroke="#424242" stroke-width="0.75" stroke-linecap="round" stroke-linejoin="round" stroke-miterlimit="10" d="
			M15.086,18.461c1.296,1.586,3.847,2.972,5.841,3.098c1.552,0.097,3.086-0.745,3.988-2.011c0.902-1.266,1.207-2.901,1.008-4.443
			c-0.167-1.301-0.807-2.681-1.975-3.366c-2.448-1.436-4.925,0.918-6.358,2.718c-2.239,2.811-3.453,6.166-4.676,9.498
			c-0.14,0.381-0.28,0.762-0.419,1.143c-0.468,1.275-0.955,2.582-1.854,3.6c-0.328,0.371-0.722,0.706-1.198,0.842
			c-1.23,0.353-1.964-0.924-2.121-1.959c-0.124-0.816,0.061-1.742,0.72-2.292c1.762-1.47,3.934,0.862,5.323,1.788
			c1.123,0.748,3.475,2.78,5.026,2.299"/>
	</g>
	<g>
		
			<path fill="none" stroke="#424242" stroke-width="0.75" stroke-linecap="round" stroke-linejoin="round" stroke-miterlimit="10" d="
			M13.117,11.726c-1.099,1.851-3.03,4.304-4.552,6.082"/>
		
			<path fill="none" stroke="#424242" stroke-width="0.75" stroke-linecap="round" stroke-linejoin="round" stroke-miterlimit="10" d="
			M19.396,17.808c-1.522-1.778-3.453-4.231-4.552-6.083"/>
		
			<circle fill="none" stroke="#424242" stroke-width="0.75" stroke-linecap="round" stroke-linejoin="round" stroke-miterlimit="10" cx="7.137" cy="19.407" r="2.144"/>
		
			<circle fill="none" stroke="#424242" stroke-width="0.75" stroke-linecap="round" stroke-linejoin="round" stroke-miterlimit="10" cx="20.824" cy="19.407" r="2.144"/>
		
			<circle fill="none" stroke="#424242" stroke-width="0.75" stroke-linecap="round" stroke-linejoin="round" stroke-miterlimit="10" cx="13.981" cy="9.26" r="2.612"/>
	</g>
</g>
<g>
</g>
<g>
</g>
<g>
</g>
<g>
</g>
<g>
</g>
<g>
</g>
<g>
</g>
<g>
</g>
<g>
</g>
<g>
</g>
<g>
</g>
<g>
</g>
<g>
</g>
<g>
</g>
<g>
</g>
</svg>
