<?xml version="1.0" encoding="UTF-8"?>
<svg id="Layer_1" xmlns="http://www.w3.org/2000/svg" width="28" height="32" version="1.1" viewBox="0 0 28 32">
  <!-- Generator: Adobe Illustrator 29.1.0, SVG Export Plug-In . SVG Version: 2.1.0 Build 142)  -->
  <defs>
    <style>
      .st0 {
        fill: none;
        stroke: #fff;
        stroke-linecap: round;
        stroke-linejoin: round;
        stroke-width: .8px;
      }
    </style>
  </defs>
  <g>
    <path class="st0" d="M14,11.9c3,0,5.5-3.1,5.2-6-.2-1.4-1.1-2.4-2.3-3-1.1-.5-2.3-.7-3.4-.5-1.3.2-2.5.8-3.4,1.6-.8.7-1.5,1.6-1.8,2.6-.5,1.6,0,3.2.9,4.5s1.6,1.9,2.3,2.9c1.1,1.6,1.8,3.6,1,5.4-1,2.2-3.4,2.8-5.7,2.2-2.3-.6-5.1-2.5-4.8-5.2.2-1.3,1-2.5,2.1-3.2.5-.3,1.1-.5,1.7-.6"/>
    <path class="st0" d="M15.1,18.6c1.3,1.6,3.7,2.9,5.7,3,1.6,0,3.2-.7,4.1-2,.9-1.3,1.2-2.9,1-4.4-.2-1.3-.8-2.7-2-3.4-2.4-1.4-4.9.9-6.4,2.7-2.2,2.8-3.5,6.2-4.7,9.5-.1.4-.3.8-.4,1.1-.4,1-.7,2-1.2,2.8s-1.4,1.8-2.5,1.6c-1.7-.4-1.9-3.3-.7-4.3,1.4-1.2,3.1.2,4.3,1.1,2.2,1.6,5.2,3.7,8.1,3.1"/>
  </g>
  <g>
    <circle class="st0" cx="7.1" cy="19.7" r="1.9"/>
    <circle class="st0" cx="20.8" cy="19.7" r="1.9"/>
    <circle class="st0" cx="14" cy="9.6" r="2.3"/>
    <path class="st0" d="M11.8,10.4c-2.7,1.5-4.2,4.3-4.6,7.4"/>
    <path class="st0" d="M16.2,10.4c2.7,1.5,4.2,4.3,4.6,7.4"/>
  </g>
</svg>