<?xml version="1.0" encoding="UTF-8"?>
<svg id="Layer_1" xmlns="http://www.w3.org/2000/svg" width="32" height="32" version="1.1" viewBox="0 0 32 32">
  <!-- Generator: Adobe Illustrator 29.1.0, SVG Export Plug-In . SVG Version: 2.1.0 Build 142)  -->
  <defs>
    <style>
      .st0 {
        fill: none;
        stroke: #f6f4ee;
        stroke-linecap: round;
        stroke-linejoin: round;
      }

      .st1 {
        fill: #1e5b43;
      }
    </style>
  </defs>
  <circle class="st1" cx="16" cy="16" r="16"/>
  <g>
    <path class="st0" d="M16,12.6c2.5,0,4.6-2.6,4.3-5-.2-1.2-.9-2-1.9-2.5-.9-.4-1.9-.6-2.8-.4-1.1.2-2.1.7-2.8,1.3-.7.6-1.3,1.3-1.5,2.2-.4,1.3,0,2.7.8,3.8s1.3,1.6,1.9,2.4c.9,1.3,1.5,3,.8,4.5-.8,1.8-2.8,2.3-4.8,1.8-1.9-.5-4.3-2.1-4-4.3.2-1.1.8-2.1,1.8-2.7.4-.3.9-.4,1.4-.5"/>
    <path class="st0" d="M16.9,18.2c1.1,1.3,3.1,2.4,4.8,2.5,1.3,0,2.7-.6,3.4-1.7s1-2.4.8-3.7c-.2-1.1-.7-2.3-1.7-2.8-2-1.2-4.1.8-5.3,2.3-1.8,2.3-2.9,5.2-3.9,7.9,0,.3-.3.7-.3.9-.3.8-.6,1.7-1,2.3s-1.2,1.5-2.1,1.3c-1.4-.3-1.6-2.8-.6-3.6,1.2-1,2.6.2,3.6.9,1.8,1.3,4.3,3.1,6.8,2.6"/>
  </g>
</svg>