<?xml version="1.0" encoding="iso-8859-1"?>
<!-- Generator: Adobe Illustrator 29.1.0, SVG Export Plug-In . SVG Version: 9.03 Build 55587)  -->
<svg version="1.1" id="Layer_1" xmlns="http://www.w3.org/2000/svg" xmlns:xlink="http://www.w3.org/1999/xlink" x="0px" y="0px"
	 width="28px" height="32px" viewBox="0 0 28 32" enable-background="new 0 0 28 32" xml:space="preserve">
<g>
	<g>
		<path fill="none" stroke="#424242" stroke-linecap="round" stroke-linejoin="round" stroke-miterlimit="10" d="M13.98,11.874
			c3.65,0,6.813-4.848,4.356-7.936c-1.016-1.276-2.699-1.595-4.247-1.606c-2.557-0.017-5.051,1.843-5.882,4.232
			c-1.43,4.111,3.831,6.32,4.57,9.979c0.466,2.306-0.805,4.905-3.262,5.291C8.457,22,7.371,21.783,6.357,21.434
			c-0.886-0.305-1.743-0.715-2.48-1.292c-1.189-0.93-2.016-2.274-1.831-3.821C2.204,14.99,3.04,13.78,4.17,13.079
			c0.518-0.322,1.102-0.538,1.709-0.613"/>
		<path fill="none" stroke="#424242" stroke-linecap="round" stroke-linejoin="round" stroke-miterlimit="10" d="M15.992,18.453
			c1.296,1.586,2.941,2.981,4.935,3.106c1.552,0.097,3.086-0.745,3.988-2.011c0.902-1.266,1.207-2.901,1.008-4.443
			c-0.167-1.301-0.807-2.681-1.975-3.366c-3.924-2.302-7.257,4.918-8.338,7.554c-1.173,2.86-2.043,5.857-3.533,8.564
			c-0.376,0.683-0.838,1.387-1.562,1.677c-0.698,0.28-1.529,0.1-2.126-0.357c-1.203-0.92-1.62-2.827-0.347-3.889
			c1.762-1.47,3.934,0.862,5.323,1.788c1.123,0.748,3.475,2.78,5.026,2.299"/>
	</g>
	<g>
		<path fill="none" stroke="#424242" stroke-linecap="round" stroke-linejoin="round" stroke-miterlimit="10" d="M13.117,11.726
			c-1.099,1.851-3.03,4.304-4.552,6.082"/>
		<path fill="none" stroke="#424242" stroke-linecap="round" stroke-linejoin="round" stroke-miterlimit="10" d="M19.396,17.808
			c-1.522-1.778-3.453-4.231-4.552-6.083"/>
		
			<circle fill="none" stroke="#424242" stroke-linecap="round" stroke-linejoin="round" stroke-miterlimit="10" cx="7.137" cy="19.407" r="2.144"/>
		
			<circle fill="none" stroke="#424242" stroke-linecap="round" stroke-linejoin="round" stroke-miterlimit="10" cx="20.824" cy="19.407" r="2.144"/>
		
			<circle fill="none" stroke="#424242" stroke-linecap="round" stroke-linejoin="round" stroke-miterlimit="10" cx="13.981" cy="9.26" r="2.612"/>
	</g>
</g>
<g>
</g>
<g>
</g>
<g>
</g>
<g>
</g>
<g>
</g>
<g>
</g>
<g>
</g>
<g>
</g>
<g>
</g>
<g>
</g>
<g>
</g>
<g>
</g>
<g>
</g>
<g>
</g>
<g>
</g>
</svg>
