<?xml version="1.0" encoding="utf-8"?>
<!-- Generator: Adobe Illustrator 15.0.0, SVG Export Plug-In . SVG Version: 6.00 Build 0)  -->
<!DOCTYPE svg PUBLIC "-//W3C//DTD SVG 1.1//EN" "http://www.w3.org/Graphics/SVG/1.1/DTD/svg11.dtd">
<svg version="1.1" id="Layer_2" xmlns="http://www.w3.org/2000/svg" xmlns:xlink="http://www.w3.org/1999/xlink" x="0px" y="0px"
	 width="281px" height="102.543px" viewBox="24.958 9.312 281 102.543" enable-background="new 24.958 9.312 281 102.543"
	 xml:space="preserve">
<circle fill="#FFFFFF" stroke="#231F20" stroke-width="7" stroke-miterlimit="10" cx="165.583" cy="62.369" r="46.254"/>
<path fill="none" stroke="#231F20" stroke-width="7" stroke-miterlimit="10" d="M209.469,77.015
	c25.601-3.313,45.434-7.535,66.967-22.565c21.534-15.03,29.468-25.23,24.934-35.714c-4.533-10.484-22.384-4.392-26.633-2.621
	c-4.251,1.771-44.126,28.839-86.945,5.672"/>
<path fill="none" stroke="#231F20" stroke-width="7" stroke-miterlimit="10" d="M121.697,77.015
	C96.096,73.703,76.263,69.48,54.73,54.45C33.197,39.42,25.263,29.22,29.797,18.736c4.534-10.484,22.383-4.392,26.634-2.621
	c4.25,1.771,44.125,28.839,86.946,5.672"/>
<g>
	<path fill="none" stroke="#231F20" stroke-width="3" stroke-linecap="round" stroke-linejoin="round" stroke-miterlimit="10" d="
		M164.496,53.926c3.911-1.643,8.483-3.516,10.707-7.373c4.058-7.045-1.591-12.459-8.688-12.856
		c-5.99-0.336-12.213,3.726-13.771,9.64c-1.319,5.008,1.722,8.174,5.046,11.404c4.391,4.268,7.81,13.068,2.874,18.141
		c-6.337,6.514-21.256,0.026-21.226-8.954c0.017-4.926,4.346-8.136,8.851-8.871"/>
	<path fill="none" stroke="#231F20" stroke-width="3" stroke-linecap="round" stroke-linejoin="round" stroke-miterlimit="10" d="
		M166.341,62.882c4.777,9.051,11.314,13.829,18.86,10.813c7.544-3.018,7.794-16.093,2.263-19.361
		c-5.533-3.269-9.556-0.251-14.584,7.795c-2.783,4.452-4.382,9.59-5.897,14.58c-1.133,3.732-2.527,7.396-4.365,10.841
		c-1.363,2.555-3.666,7.262-7.247,6.727c-6.244-0.932-4.586-13.272,2.925-9.518c2.932,1.467,5.499,3.526,8.147,5.436
		c2.465,1.777,5.359,4.013,8.61,3.238"/>
	<path fill="none" stroke="#231F20" stroke-width="1.5" stroke-linecap="round" stroke-linejoin="round" stroke-miterlimit="10" d="
		M166.079,44.234c-3.019,9.304-14.545,20.048-14.545,20.048"/>
	<path fill="#231F20" d="M149.769,64.283c0,0.974,0.79,1.764,1.765,1.764s1.764-0.79,1.764-1.764c0-0.975-0.789-1.765-1.764-1.765
		S149.769,63.307,149.769,64.283"/>
	<path fill="none" stroke="#231F20" stroke-width="1.5" stroke-linecap="round" stroke-linejoin="round" stroke-miterlimit="10" d="
		M166.079,44.234c3.016,9.304,14.542,20.048,14.542,20.048"/>
	<path fill="#231F20" d="M164.312,44.234c0,0.975,0.791,1.765,1.767,1.765c0.975,0,1.765-0.791,1.765-1.765
		c0-0.974-0.79-1.765-1.765-1.765C165.103,42.468,164.312,43.26,164.312,44.234"/>
	<path fill="#231F20" d="M182.386,64.283c0,0.974-0.791,1.764-1.766,1.764s-1.764-0.79-1.764-1.764c0-0.975,0.791-1.765,1.764-1.765
		C181.595,62.516,182.386,63.307,182.386,64.283"/>
</g>
</svg>
