<?xml version="1.0" encoding="utf-8"?>
<!-- Generator: Adobe Illustrator 15.0.0, SVG Export Plug-In . SVG Version: 6.00 Build 0)  -->
<!DOCTYPE svg PUBLIC "-//W3C//DTD SVG 1.1//EN" "http://www.w3.org/Graphics/SVG/1.1/DTD/svg11.dtd">
<svg version="1.1" id="Layer_1" xmlns="http://www.w3.org/2000/svg" xmlns:xlink="http://www.w3.org/1999/xlink" x="0px" y="0px"
	 width="280.887px" height="122.108px" viewBox="0 0 280.887 122.108" enable-background="new 0 0 280.887 122.108"
	 xml:space="preserve">
<g>
	<g>
		<circle fill="#FFFFFF" cx="140.443" cy="53.457" r="46.4"/>
		<path fill="#231F20" d="M140.444,102.84c-27.231,0-49.385-22.154-49.385-49.384c0-27.231,22.154-49.385,49.385-49.385
			c27.23,0,49.384,22.154,49.384,49.385C189.828,80.686,167.674,102.84,140.444,102.84z M140.444,10.041
			c-23.94,0-43.417,19.477-43.417,43.416c0,23.938,19.476,43.415,43.417,43.415c23.939,0,43.416-19.477,43.416-43.415
			C183.86,29.517,164.383,10.041,140.444,10.041z"/>
	</g>
	<g>
		<g>
			<g>
				<path fill="#231F20" d="M128.375,68.148c-2.044,0.001-4.232-0.44-6.433-1.34c-5.758-2.35-9.467-6.981-9.451-11.796
					c0.02-5.954,5.252-9.518,10.104-10.309c0.699-0.115,1.358,0.359,1.472,1.059c0.114,0.699-0.36,1.358-1.059,1.473
					c-3.819,0.623-7.937,3.325-7.953,7.787c-0.015,4.281,3.934,7.812,7.855,9.413c4.543,1.854,9.096,1.393,11.596-1.177
					c2.485-2.555,2.335-5.965,1.772-8.376c-0.703-3.008-2.496-6.195-4.679-8.317c-3.152-3.063-7.074-6.875-5.492-12.879
					c1.696-6.437,8.439-11.175,15.361-10.788c4.672,0.263,8.68,2.469,10.46,5.758c1.495,2.762,1.296,6.057-0.56,9.277
					c-2.447,4.248-7.175,6.232-11.348,7.984l-0.188,0.079c-0.653,0.274-1.404-0.033-1.678-0.686
					c-0.275-0.653,0.032-1.404,0.685-1.679l0.188-0.079c3.798-1.595,8.103-3.402,10.12-6.9c1.414-2.455,1.597-4.798,0.527-6.775
					c-1.361-2.513-4.561-4.206-8.35-4.418c-5.745-0.322-11.341,3.578-12.737,8.88c-1.116,4.238,1.176,6.863,4.8,10.386
					c2.555,2.482,4.569,6.061,5.389,9.573c1.003,4.29,0.139,8.106-2.431,10.748C134.353,67.094,131.535,68.148,128.375,68.148z"/>
			</g>
		</g>
		<g>
			<g>
				<path fill="#231F20" d="M130.628,87.302c-0.256,0-0.519-0.018-0.789-0.059c-2.326-0.346-4.048-1.944-4.724-4.386
					c-0.775-2.796,0.041-5.865,1.984-7.465c0.993-0.817,3.156-1.94,6.487-0.274c1.189,0.595,2.32,1.281,3.412,2.008
					c1.369-2.783,2.568-5.889,3.648-9.445c0.775-2.555,1.607-5.287,2.655-8.003c-1.126-1.494-2.2-3.205-3.216-5.129
					c-0.331-0.626-0.09-1.402,0.536-1.733c0.625-0.331,1.402-0.091,1.733,0.536c0.625,1.185,1.328,2.389,2.109,3.546
					c0.683-1.503,1.452-2.98,2.337-4.396c4.313-6.902,9.313-12.693,16.617-8.376c3.099,1.831,4.854,6.212,4.475,11.162
					c-0.396,5.155-3.062,9.325-6.958,10.884c-5.64,2.256-11.054,0.751-15.738-4.232c-0.794,2.202-1.463,4.407-2.097,6.489
					c-1.167,3.841-2.472,7.187-3.977,10.186c0.458,0.331,0.913,0.665,1.363,0.998c0.528,0.388,1.056,0.776,1.586,1.159l0.335,0.242
					c2.251,1.628,4.804,3.473,7.402,2.855c0.69-0.165,1.38,0.263,1.545,0.95c0.164,0.689-0.262,1.381-0.951,1.545
					c-3.743,0.89-6.935-1.418-9.5-3.272l-0.33-0.238c-0.538-0.388-1.074-0.783-1.609-1.176c-0.346-0.256-0.695-0.513-1.047-0.769
					C136.442,83.634,134.166,87.302,130.628,87.302z M130.312,76.822c-0.606,0-1.135,0.183-1.583,0.552
					c-1.147,0.944-1.639,3.007-1.142,4.8c0.231,0.834,0.88,2.273,2.63,2.534c2.401,0.357,4.34-2.958,5.589-5.291
					c-1.091-0.736-2.21-1.424-3.368-2.004C131.65,77.019,130.94,76.822,130.312,76.822z M146.234,59.259
					c3.432,4.088,8.015,6.823,13.747,4.53c3.564-1.426,5.103-5.428,5.355-8.698c0.3-3.921-0.995-7.44-3.223-8.757
					c-3.9-2.304-7.299-1.812-13.136,7.527C147.909,55.569,147.013,57.395,146.234,59.259z"/>
			</g>
		</g>
		<g>
			<g>
				<path fill="#231F20" d="M126.115,56.019c-0.172,0-0.343-0.068-0.469-0.204c-0.242-0.259-0.228-0.665,0.031-0.907
					c0.117-0.108,11.673-10.958,14.664-20.179c0.109-0.337,0.47-0.521,0.808-0.412c0.336,0.109,0.521,0.471,0.412,0.808
					c-3.094,9.538-14.524,20.269-15.009,20.721C126.428,55.962,126.271,56.019,126.115,56.019z"/>
			</g>
		</g>
		<g>
			<g>
				<path fill="#231F20" d="M124.314,55.378c0,0.994,0.806,1.801,1.8,1.801c0.994,0,1.8-0.807,1.8-1.801s-0.807-1.8-1.8-1.8
					C125.12,53.578,124.314,54.384,124.314,55.378"/>
			</g>
		</g>
		<g>
			<g>
				<path fill="#231F20" d="M155.787,56.019c-0.157,0-0.313-0.057-0.438-0.172c-0.485-0.452-11.916-11.183-15.009-20.721
					c-0.109-0.337,0.075-0.699,0.412-0.808s0.699,0.075,0.808,0.412c2.993,9.226,14.546,20.071,14.664,20.179
					c0.259,0.242,0.274,0.647,0.031,0.906C156.13,55.951,155.959,56.019,155.787,56.019z"/>
			</g>
		</g>
		<g>
			<g>
				<path fill="#231F20" d="M139.151,34.928c0,0.994,0.805,1.801,1.8,1.801c0.994,0,1.801-0.807,1.801-1.801s-0.808-1.8-1.801-1.8
					C139.956,33.127,139.151,33.934,139.151,34.928"/>
			</g>
		</g>
		<g>
			<g>
				<path fill="#231F20" d="M157.587,55.378c0,0.994-0.806,1.801-1.8,1.801c-0.995,0-1.8-0.807-1.8-1.801s0.806-1.8,1.8-1.8
					C156.781,53.578,157.587,54.384,157.587,55.378"/>
			</g>
		</g>
	</g>
	<g>
		<path fill="#231F20" d="M184.851,71.107l-0.766-5.919c27.194-3.519,45.743-8.086,65.853-22.123
			c24.164-16.866,27.063-25.069,23.98-32.195c-3.18-7.35-17.558-3.257-22.83-1.06c-0.273,0.114-1.151,0.596-1.999,1.063
			c-31.624,17.39-61.162,18.903-87.789,4.496l2.84-5.249c24.727,13.379,52.341,11.872,82.073-4.478
			c1.251-0.688,2.008-1.104,2.578-1.342c2.497-1.041,24.566-9.763,30.606,4.2c5.866,13.565-6.17,25.585-26.044,39.458
			C232.236,62.699,212.987,67.467,184.851,71.107z"/>
	</g>
	<g>
		<path fill="#231F20" d="M96.035,71.107C67.9,67.467,48.65,62.699,27.533,47.959C7.657,34.086-4.377,22.067,1.49,8.501
			c6.039-13.963,28.108-5.24,30.605-4.2c0.571,0.238,1.327,0.654,2.579,1.342c29.731,16.35,57.344,17.856,82.072,4.478l2.84,5.249
			c-26.627,14.408-56.164,12.894-87.789-4.496c-0.849-0.467-1.726-0.949-2-1.063c-5.272-2.197-19.651-6.29-22.83,1.06
			c-3.082,7.126-0.183,15.329,23.981,32.195c20.109,14.037,38.658,18.604,65.852,22.123L96.035,71.107z"/>
	</g>
	<g>
		<path fill="#231F20" d="M84.427,86.231c-1.09,0.545-2.154,0.576-3.193,0.094c-1.038-0.481-1.89-1.388-2.554-2.716
			c-0.799-1.597-1.236-2.909-1.31-3.937l0.911-0.456c0.071,1.142,0.472,2.441,1.203,3.901c0.536,1.071,1.208,1.8,2.014,2.183
			c0.806,0.382,1.608,0.374,2.406-0.025c0.495-0.248,0.852-0.558,1.072-0.928c0.221-0.371,0.347-0.858,0.38-1.463
			c0.033-0.605-0.024-1.441-0.17-2.508c-0.209-1.564-0.174-2.734,0.104-3.51s0.861-1.387,1.749-1.829
			c0.977-0.49,1.965-0.506,2.966-0.049c0.999,0.457,1.799,1.287,2.401,2.49c0.614,1.229,0.958,2.497,1.033,3.808l-0.952,0.063
			c-0.09-1.311-0.382-2.46-0.876-3.45c-0.483-0.964-1.091-1.621-1.824-1.97c-0.732-0.349-1.483-0.33-2.253,0.055
			c-0.482,0.241-0.834,0.526-1.056,0.857c-0.222,0.331-0.356,0.758-0.404,1.282c-0.047,0.521-0.001,1.354,0.139,2.499
			c0.158,1.193,0.2,2.129,0.126,2.808c-0.074,0.678-0.263,1.24-0.565,1.685C85.472,85.561,85.022,85.933,84.427,86.231z"/>
		<path fill="#231F20" d="M88.534,98.298l-4.846-6.347l11.61-8.865l4.846,6.345l-0.746,0.57l-4.228-5.535l-4.391,3.354l3.99,5.225
			l-0.746,0.57l-3.991-5.226l-4.979,3.804l4.227,5.534L88.534,98.298z"/>
		<path fill="#231F20" d="M109.778,97.998l-6.097,7.223c-1.083,1.281-2.301,1.971-3.655,2.066c-1.354,0.095-2.694-0.418-4.022-1.539
			c-1.292-1.092-1.996-2.306-2.109-3.644c-0.112-1.338,0.379-2.656,1.474-3.954l6.073-7.192l0.786,0.665l-6.098,7.223
			c-0.907,1.073-1.315,2.161-1.224,3.262c0.09,1.102,0.68,2.111,1.769,3.031c1.064,0.897,2.137,1.3,3.218,1.206
			c1.082-0.094,2.063-0.662,2.944-1.706L109,97.339L109.778,97.998z"/>
		<path fill="#231F20" d="M115.153,117.224l-0.924-0.45l-2.089-15.452l-0.072-0.034c-0.605,1.424-1.082,2.489-1.426,3.194
			l-4.154,8.514l-0.88-0.429l6.407-13.129l0.916,0.445l2.089,15.43l0.054,0.027c0.472-1.104,0.944-2.142,1.417-3.11l4.181-8.568
			l0.889,0.435L115.153,117.224z"/>
		<path fill="#231F20" d="M128.398,113.267l5.275,1.088l-1.347,6.528c-1.504,0.301-3.12,0.273-4.849-0.082
			c-2.257-0.466-3.856-1.462-4.797-2.985s-1.17-3.453-0.688-5.788c0.3-1.456,0.864-2.684,1.693-3.686s1.863-1.695,3.102-2.081
			c1.239-0.382,2.579-0.426,4.021-0.129c1.559,0.322,2.899,0.898,4.021,1.728l-0.587,0.817c-1.121-0.83-2.347-1.382-3.678-1.656
			c-1.886-0.389-3.501-0.114-4.847,0.821c-1.346,0.937-2.223,2.394-2.631,4.369c-0.444,2.153-0.253,3.881,0.574,5.185
			s2.257,2.165,4.293,2.584c1.317,0.272,2.475,0.317,3.472,0.135l1.038-5.029l-4.257-0.878L128.398,113.267z"/>
		<path fill="#231F20" d="M144.763,121.679l-6.334-13.097l-0.08,0.006c0.108,0.82,0.192,1.664,0.25,2.526l0.731,10.927l-0.977,0.066
			l-0.976-14.575l1.575-0.106l6.023,12.476l0.06-0.003l4.306-13.168l1.536-0.103l0.976,14.576l-1.027,0.068l-0.739-11.047
			c-0.051-0.771-0.065-1.571-0.041-2.399l-0.08,0.005l-4.554,13.805L144.763,121.679z"/>
		<path fill="#231F20" d="M157.593,119.654l-3.745-14.121l0.985-0.261l3.745,14.121L157.593,119.654z"/>
		<path fill="#231F20" d="M173.737,113.447l-0.937,0.429l-13.256-8.21l-0.073,0.034c0.715,1.373,1.235,2.417,1.561,3.132
			l3.932,8.618l-0.891,0.406l-6.064-13.291l0.928-0.423l13.239,8.193l0.055-0.024c-0.554-1.065-1.053-2.09-1.501-3.071l-3.956-8.672
			l0.899-0.41L173.737,113.447z"/>
		<path fill="#231F20" d="M183.802,106.481l-9.737-10.89l0.76-0.68l9.098,10.175l5.192-4.642l0.639,0.715L183.802,106.481z"/>
		<path fill="#231F20" d="M197.427,91.701l-4.891,6.311l-11.547-8.948l4.892-6.312l0.741,0.575l-4.267,5.506l4.368,3.384
			l4.027-5.195l0.743,0.574l-4.028,5.197l4.953,3.838l4.266-5.505L197.427,91.701z"/>
		<path fill="#231F20" d="M203.675,80.283l-3.615,7.12l-13.025-6.615l3.615-7.119l0.838,0.426l-3.153,6.209l4.926,2.503l2.978-5.862
			l0.838,0.425l-2.979,5.862l5.587,2.837l3.154-6.21L203.675,80.283z"/>
	</g>
</g>
</svg>
