<?xml version="1.0" encoding="utf-8"?>
<!-- Generator: Adobe Illustrator 15.0.0, SVG Export Plug-In . SVG Version: 6.00 Build 0)  -->
<!DOCTYPE svg PUBLIC "-//W3C//DTD SVG 1.1//EN" "http://www.w3.org/Graphics/SVG/1.1/DTD/svg11.dtd">
<svg version="1.1" id="Layer_2" xmlns="http://www.w3.org/2000/svg" xmlns:xlink="http://www.w3.org/1999/xlink" x="0px" y="0px"
	 width="280px" height="35.833px" viewBox="0 0 280 35.833" enable-background="new 0 0 280 35.833" xml:space="preserve">
<g>
	<path fill="none" stroke="#000000" stroke-width="7" stroke-linecap="round" stroke-miterlimit="10" d="M138.426-215.235
		c-11.369,0-35.103,6.582-50.061,16.953c-14.959,10.37-21.939,18.348-17.152,26.726c4.786,8.376,23.534-1.597,28.918-4.189
		c5.385-2.592,15.757-6.779,27.723-5.784c11.966,0.998,22.537,4.379,22.736,13.259"/>
	<path fill="none" stroke="#000000" stroke-width="7" stroke-linecap="round" stroke-miterlimit="10" d="M187.488-215.235
		c11.369,0,35.104,6.582,50.061,16.953c14.959,10.37,21.94,18.348,17.154,26.726c-4.787,8.376-23.534-1.597-28.921-4.189
		c-5.385-2.592-15.756-6.779-27.722-5.784c-11.967,0.998-22.538,4.379-22.736,13.259"/>
</g>
<line fill="none" stroke="#000000" stroke-width="7" stroke-linecap="round" stroke-miterlimit="10" x1="22" y1="-196.167" x2="302" y2="-196.167"/>
<g>
	<path fill="none" stroke="#000000" stroke-width="3" stroke-linecap="round" stroke-miterlimit="10" d="M122.105-1.784
		c-8.729,0-26.953,5.054-38.438,13.018c-11.486,7.964-16.846,14.089-13.17,20.521c3.675,6.432,18.07-1.226,22.205-3.217
		c4.135-1.989,12.099-5.205,21.287-4.441c9.188,0.768,17.304,3.363,17.458,10.182"/>
	<path fill="none" stroke="#000000" stroke-width="3" stroke-linecap="round" stroke-miterlimit="10" d="M159.777-1.784
		c8.73,0,26.953,5.054,38.438,13.018s16.847,14.089,13.172,20.521c-3.676,6.432-18.071-1.226-22.207-3.217
		c-4.135-1.989-12.098-5.205-21.285-4.441c-9.189,0.768-17.306,3.363-17.458,10.182"/>
</g>
<line fill="none" stroke="#000000" stroke-width="3" stroke-linecap="round" stroke-miterlimit="10" x1="0" y1="11.833" x2="280" y2="11.833"/>
<rect x="21.5" y="-399.167" fill="none" stroke="#000000" stroke-width="7" stroke-linecap="round" stroke-miterlimit="10" width="280" height="184"/>
<rect x="127.333" y="-160.333" fill="none" width="69.334" height="59.999"/>
<text transform="matrix(1 0 0 1 131.8325 -120.1563)" font-family="'MyriadPro-Semibold'" font-size="48">Liv</text>
</svg>
